<?xml version="1.0" encoding="utf-8"?>
<!-- Generator: Adobe Illustrator 22.1.0, SVG Export Plug-In . SVG Version: 6.00 Build 0)  -->
<svg version="1.1" id="Layer_1" xmlns="http://www.w3.org/2000/svg" xmlns:xlink="http://www.w3.org/1999/xlink" x="0px" y="0px"
	 viewBox="0 0 528 332" style="enable-background:new 0 0 528 332;" xml:space="preserve">
<style type="text/css">
	.st0{fill:#FFF0F5;stroke:#203460;stroke-width:3;stroke-miterlimit:10;}
	.st1{fill:#BA2B58;}
	.st2{fill:#1A237B;}
</style>
<g>
	<rect x="9" y="15.4" class="st0" width="512" height="298.7"/>
	<polygon class="st1" points="351.8,123.4 521,28.6 521,15.4 509.3,15.4 316.4,123.4 	"/>
	<polygon class="st1" points="343.8,212.1 521,311.2 521,291.4 379.2,212.1 	"/>
	<polygon class="st1" points="9,38.1 160.5,123.4 196,123.4 9,18.2 	"/>
	<polygon class="st1" points="187.9,212.1 9,312.3 9,314.1 41.3,314.1 223.4,212.1 	"/>
	<polygon class="st2" points="486,15.4 306.7,15.4 306.7,115.8 	"/>
	<polygon class="st2" points="227.5,15.4 49,15.4 227.5,115.8 	"/>
	<polygon class="st2" points="521,123.4 521,54.8 399.4,123.4 	"/>
	<polygon class="st2" points="521,279.8 521,212.1 399.4,212.1 	"/>
	<polygon class="st2" points="59.1,314.1 227.5,314.1 227.5,219.6 	"/>
	<polygon class="st2" points="306.7,314.1 475.6,314.1 306.7,219.6 	"/>
	<polygon class="st2" points="9,212.1 9,282.9 134.8,212.1 	"/>
	<polygon class="st2" points="9,123.4 134.8,123.4 9,52.4 	"/>
	<polygon class="st1" points="243.4,15.4 243.4,141.1 9,141.1 9,194.3 243.4,194.3 243.4,314.1 290.9,314.1 290.9,194.3 521,194.3 
		521,141.1 290.9,141.1 290.9,15.4 	"/>
</g>
</svg>
